<svg width="299" height="272" viewBox="0 0 299 272" fill="none" xmlns="http://www.w3.org/2000/svg">
    <g filter="url(#filter0_dd)">
        <path d="M208.679 248.219L207.242 248.419L205.857 248.593L204.523 248.734L203.249 248.842L202.01 248.925L200.831 248.975L199.695 249H198.603L197.561 248.967L196.563 248.909L195.608 248.826L194.696 248.718L193.818 248.576L192.992 248.419L192.2 248.236L191.452 248.028L190.737 247.796L190.058 247.538L189.421 247.256L188.81 246.956L188.242 246.632L187.7 246.284L187.192 245.918L186.719 245.528L186.271 245.121L185.858 244.689L185.471 244.24L185.11 243.775L184.774 243.285L184.464 242.778L183.922 241.715L183.466 240.585L183.096 239.388L182.795 238.134L182.562 236.813L182.399 235.443L182.278 234.022L182.201 232.552L182.158 231.031L182.149 229.478L182.167 227.883L182.184 226.255L182.218 224.602L182.261 221.196L182.27 219.468L180.385 181.03L172.537 216.518C170.885 223.098 169.026 229.279 178.94 234.263C185.961 240.252 178.114 248.427 170.472 247.43C147.548 248.219 150.852 233.474 152.917 223.098L154.156 207.945L157.874 177.042L154.776 169.267C129.786 163.086 112.851 158.5 93.6443 148.531L80.0136 150.326C73.6113 151.323 75.2635 158.301 74.6439 162.886L72.5787 175.455L61.2197 203.966L60.3937 206.35C59.5675 208.344 59.7741 216.12 62.6654 220.107L68.8612 232.078C73.4048 238.649 74.6439 255.397 61.8393 250.014H62.0459L52.5457 246.225C45.7303 243.442 40.1541 225.299 37.6758 212.141L38.0888 193.391C32.0996 191.804 29.6213 225.092 32.0996 232.078L38.0888 249.415C39.741 254.998 32.9257 257 28.1756 257C17.0232 257 12.0665 246.026 9.79476 236.855L8.14256 229.877C5.25119 219.31 6.69686 203.16 12.2731 193.79L15.1644 188.008C19.9145 176.444 13.7187 168.27 12.2731 162.288C7.52297 143.547 3.59899 125.404 17.0232 107.46L18.2623 106.073C17.6428 104.669 13.7188 101.687 11.447 94.7001C6.28382 78.7501 1.74024 52.6319 8.14256 52.6319L12.4796 52.4325C23.219 52.4325 19.9145 95.4976 32.9257 92.7063L125.862 93.7032L142.384 89.3253C148.167 87.722 153.33 84.1332 158.7 80.9432L169.439 74.5632C181.418 86.3263 192.157 93.7032 209.712 99.8838C214.462 134.974 209.092 142.758 204.549 163.684L202.897 172.257C199.386 187.219 198.353 202.762 199.179 218.313L199.592 225.49C199.179 232.867 203.723 233.474 209.712 235.268C213.636 237.254 216.321 244.63 208.679 248.219Z" fill="#FFFFFF"/>
        <path d="M238.435 28.3647L238.899 28.697L239.381 29.0292L240.354 29.752L241.36 30.5246L242.385 31.347L243.426 32.211L244.476 33.1081L245.543 34.0386L246.618 34.9939L247.694 35.9825L248.77 36.9794L250.895 39.023L251.936 40.0531L252.969 41.0832L253.976 42.105L254.957 43.1268L261.566 49.8972C265.696 54.0841 272.098 53.486 277.675 54.6823L279.946 54.8816C285.936 58.0799 284.077 64.46 282.012 69.2367L280.773 72.2356C274.783 85.9842 257.435 86.9811 245.044 80.6011L239.674 77.8098H237.815L233.891 80.2023L226.25 86.1919C210.141 79.4131 197.13 71.4298 186.803 60.6635L210.76 31.5547L218.815 20.3896L220.467 16.6015L222.326 12.4229C222.326 12.4229 229.761 3.4427 234.098 5.23708C238.435 7.03977 241.12 14.8071 240.087 18.7946L238.848 23.5796L238.435 28.3647H238.641H238.435Z" fill="#FFFFFF"/>
    </g>
    <defs>
        <filter id="filter0_dd" x="0" y="0" width="299" height="272" filterUnits="userSpaceOnUse" color-interpolation-filters="sRGB">
            <feFlood flood-opacity="0" result="BackgroundImageFix"/>
            <feColorMatrix in="SourceAlpha" type="matrix" values="0 0 0 0 0 0 0 0 0 0 0 0 0 0 0 0 0 0 127 0"/>
            <feOffset dx="5" dy="5"/>
            <feGaussianBlur stdDeviation="5"/>
            <feColorMatrix type="matrix" values="0 0 0 0 0 0 0 0 0 0 0 0 0 0 0 0 0 0 1 0"/>
            <feBlend mode="normal" in2="BackgroundImageFix" result="effect1_dropShadow"/>
            <feColorMatrix in="SourceAlpha" type="matrix" values="0 0 0 0 0 0 0 0 0 0 0 0 0 0 0 0 0 0 127 0"/>
            <feOffset dy="4"/>
            <feGaussianBlur stdDeviation="2"/>
            <feColorMatrix type="matrix" values="0 0 0 0 0 0 0 0 0 0 0 0 0 0 0 0 0 0 0.25 0"/>
            <feBlend mode="normal" in2="effect1_dropShadow" result="effect2_dropShadow"/>
            <feBlend mode="normal" in="SourceGraphic" in2="effect2_dropShadow" result="shape"/>
        </filter>
    </defs>
</svg>
